<?xml version="1.0" encoding="UTF-8" standalone="no"?>
<!DOCTYPE svg PUBLIC "-//W3C//DTD SVG 1.1//EN" "http://www.w3.org/Graphics/SVG/1.1/DTD/svg11.dtd">
<svg width="100%" height="100%" viewBox="0 0 1024 1024" version="1.1" xmlns="http://www.w3.org/2000/svg" xmlns:xlink="http://www.w3.org/1999/xlink" xml:space="preserve" xmlns:serif="http://www.serif.com/" style="fill-rule:evenodd;clip-rule:evenodd;stroke-linejoin:round;stroke-miterlimit:2;">
    <g transform="matrix(1.072338,0,0,1.072338,-3.38688,186.201151)">
        <path d="M958.082,181.5C958.071,544.131 958.136,544.26 956.096,552.392C943.842,601.252 897.994,601.517 891.5,601.554C881.873,601.61 201.5,601.576 141.5,601.573C138.895,601.572 105.937,593.17 85.821,579.463C63.351,564.151 40.908,554.28 15.732,522.329C1.708,504.531 3.466,485.096 3.191,411.502C3.094,385.696 3.171,85.063 3.997,68.521C4.109,66.268 1.724,36.768 29.559,15.576C48.003,1.534 55.443,3.525 154.5,3.525C829.701,3.525 829.75,3.432 835.534,4.3C882.618,11.371 943.81,50.98 952.652,98.586C955.039,111.438 957.543,135.435 958.082,181.5Z" style="fill-opacity:1;"/>
        <path d="M914.956,116.449C915.156,118.844 915.338,118.746 915.102,531.5C915.098,538.343 917.335,550.384 902.376,557.211C897.056,559.638 862.358,558.678 186.5,558.91C136.477,558.928 120.534,561.738 115.735,544.434C114.792,541.034 114.507,540.991 114.66,263.5C114.667,251.821 114.739,120.935 114.827,117.509C115.298,99.038 137.025,98.847 139.501,98.825C155.624,98.684 861.979,99.112 884.503,98.605C912.676,97.971 914.424,113.214 914.956,116.449Z" style="fill:rgb(254,254,254);"/>
        <path d="M759.775,319.936C755.348,327.437 755.839,327.635 709.308,416.4C707.414,420.012 686.005,460.853 685.438,461.445C684.411,462.518 684.154,462.444 652.5,462.418C645.631,462.413 647.271,459.294 632.162,432.681C630.075,429.007 584.131,343.966 579.962,336.248C575.739,328.433 572.735,318.524 573.06,327.383C573.357,335.461 573.331,335.456 573.33,490.5C573.33,496.675 570.648,495.177 564.5,495.178C497.896,495.186 497.507,495.268 496.948,494.265C496.649,493.729 496.638,493.703 496.644,167.5C496.644,161.333 499.286,162.775 505.5,162.775C563.94,162.77 564.239,162.644 565.246,163.732C566.252,164.818 656.125,332.881 664.703,348.392C666.557,351.746 667.562,355.979 669.777,351.669C671.551,348.216 766.228,166.735 767.997,163.883C768.776,162.629 769.228,162.769 831.5,162.775C838.322,162.775 836.655,165.711 836.671,172.5C837.344,465.994 837.658,465.981 837.446,491.5C837.396,497.478 834.512,495.177 828.5,495.178C762.78,495.183 762.488,495.273 761.754,494.33C760.877,493.203 761.388,444.383 760.938,405.499C760.86,398.784 760.082,331.739 761.058,321.56C761.17,320.388 760.852,320.52 759.775,319.936Z"/>
        <path d="M402.387,284.239C393.759,287.707 296.448,326.813 294.489,327.474C289.211,329.254 294.651,330.489 295.39,330.766C306.209,334.834 305.756,335.815 429.452,384.621C432.757,385.925 469.605,400.464 470.57,401.428C471.79,402.645 471.213,403.002 471.415,488.5C471.425,492.793 472.656,495.774 468.644,494.114C335.896,439.176 336.499,437.899 203.651,383.134C195.614,379.821 192.443,379.147 192.428,375.501C192.398,367.903 192.06,282.448 192.612,280.535C193.351,277.972 251.779,255.294 306.611,231.761C309.249,230.629 451.277,171.353 463.71,165.975C464.264,165.735 470.171,163.18 470.997,164.034C471.462,164.516 471.417,164.629 471.415,249.5C471.415,252.414 472.047,256.139 469.4,257.284C464.097,259.578 464.055,259.331 402.387,284.239Z"/>
    </g>
</svg>
