<svg xmlns="http://www.w3.org/2000/svg" viewBox="0 0 720 190" role="img" aria-label="Lessmark pixel art character in a night field" shape-rendering="crispEdges">
  <rect width="720" height="190" fill="#f8f8f5"/>

  <g opacity="0.96">
    <rect x="0" y="0" width="720" height="142" fill="#121316"/>
    <rect x="0" y="142" width="720" height="48" fill="#f8f8f5"/>
  </g>

  <g fill="#f1f1ec">
    <rect x="68" y="30" width="4" height="12"/>
    <rect x="64" y="34" width="12" height="4"/>
    <rect x="170" y="18" width="4" height="12"/>
    <rect x="166" y="22" width="12" height="4"/>
    <rect x="578" y="26" width="4" height="12"/>
    <rect x="574" y="30" width="12" height="4"/>
    <rect x="646" y="54" width="4" height="12"/>
    <rect x="642" y="58" width="12" height="4"/>
  </g>

  <g fill="#bdbdb7" opacity="0.7">
    <rect x="88" y="70" width="72" height="4"/>
    <rect x="112" y="78" width="36" height="4"/>
    <rect x="550" y="74" width="82" height="4"/>
    <rect x="568" y="82" width="44" height="4"/>
    <rect x="230" y="52" width="40" height="4"/>
    <rect x="450" y="48" width="52" height="4"/>
  </g>

  <g fill="#ddddd8">
    <rect x="0" y="136" width="720" height="8"/>
    <rect x="0" y="152" width="720" height="4"/>
    <rect x="0" y="164" width="720" height="3"/>
  </g>

  <g fill="#8a8a84">
    <rect x="20" y="128" width="3" height="12"/>
    <rect x="23" y="132" width="3" height="8"/>
    <rect x="48" y="130" width="3" height="10"/>
    <rect x="51" y="126" width="3" height="14"/>
    <rect x="92" y="128" width="3" height="12"/>
    <rect x="95" y="132" width="3" height="8"/>
    <rect x="612" y="130" width="3" height="10"/>
    <rect x="615" y="126" width="3" height="14"/>
    <rect x="668" y="128" width="3" height="12"/>
    <rect x="671" y="132" width="3" height="8"/>
    <rect x="700" y="126" width="3" height="14"/>
    <rect x="703" y="130" width="3" height="10"/>
  </g>

  <g fill="#f8f8f5">
    <rect x="286" y="40" width="148" height="10"/>
    <rect x="276" y="50" width="10" height="82"/>
    <rect x="434" y="50" width="10" height="82"/>
    <rect x="286" y="132" width="148" height="10"/>
  </g>

  <g fill="#121316">
    <rect x="294" y="50" width="132" height="82"/>
    <rect x="306" y="62" width="108" height="58"/>
  </g>

  <g fill="#f8f8f5">
    <rect x="318" y="78" width="10" height="8"/>
    <rect x="328" y="70" width="10" height="8"/>
    <rect x="338" y="62" width="10" height="8"/>
    <rect x="328" y="86" width="10" height="8"/>
    <rect x="338" y="94" width="10" height="8"/>
    <rect x="364" y="64" width="12" height="44"/>
    <rect x="376" y="72" width="8" height="14"/>
    <rect x="384" y="86" width="8" height="12"/>
    <rect x="392" y="72" width="8" height="14"/>
    <rect x="400" y="64" width="24" height="44"/>
  </g>

  <g fill="#f8f8f5">
    <rect x="238" y="88" width="38" height="8"/>
    <rect x="226" y="96" width="12" height="8"/>
    <rect x="444" y="88" width="38" height="8"/>
    <rect x="482" y="80" width="12" height="8"/>
    <rect x="328" y="142" width="8" height="16"/>
    <rect x="318" y="158" width="24" height="6"/>
    <rect x="386" y="142" width="8" height="16"/>
    <rect x="386" y="158" width="24" height="6"/>
  </g>

  <g fill="#595955">
    <rect x="286" y="40" width="148" height="10"/>
    <rect x="276" y="50" width="10" height="82"/>
    <rect x="434" y="50" width="10" height="82"/>
    <rect x="286" y="132" width="148" height="10"/>
    <rect x="238" y="88" width="38" height="8"/>
    <rect x="226" y="96" width="12" height="8"/>
    <rect x="444" y="88" width="38" height="8"/>
    <rect x="482" y="80" width="12" height="8"/>
    <rect x="328" y="142" width="8" height="16"/>
    <rect x="318" y="158" width="24" height="6"/>
    <rect x="386" y="142" width="8" height="16"/>
    <rect x="386" y="158" width="24" height="6"/>
  </g>

  <g fill="#f8f8f5">
    <rect x="292" y="52" width="136" height="78"/>
    <rect x="318" y="78" width="10" height="8"/>
    <rect x="328" y="70" width="10" height="8"/>
    <rect x="338" y="62" width="10" height="8"/>
    <rect x="328" y="86" width="10" height="8"/>
    <rect x="338" y="94" width="10" height="8"/>
    <rect x="364" y="64" width="12" height="44"/>
    <rect x="376" y="72" width="8" height="14"/>
    <rect x="384" y="86" width="8" height="12"/>
    <rect x="392" y="72" width="8" height="14"/>
    <rect x="400" y="64" width="24" height="44"/>
  </g>

  <g fill="#595955">
    <rect x="318" y="78" width="10" height="8"/>
    <rect x="328" y="70" width="10" height="8"/>
    <rect x="338" y="62" width="10" height="8"/>
    <rect x="328" y="86" width="10" height="8"/>
    <rect x="338" y="94" width="10" height="8"/>
    <rect x="364" y="64" width="12" height="44"/>
    <rect x="376" y="72" width="8" height="14"/>
    <rect x="384" y="86" width="8" height="12"/>
    <rect x="392" y="72" width="8" height="14"/>
    <rect x="400" y="64" width="24" height="44"/>
  </g>

  <g fill="#8a8a84" opacity="0.7">
    <rect x="32" y="148" width="6" height="14"/>
    <rect x="38" y="154" width="5" height="8"/>
    <rect x="82" y="150" width="5" height="12"/>
    <rect x="87" y="144" width="5" height="18"/>
    <rect x="126" y="148" width="6" height="14"/>
    <rect x="132" y="154" width="5" height="8"/>
    <rect x="190" y="150" width="5" height="12"/>
    <rect x="195" y="144" width="5" height="18"/>
    <rect x="520" y="148" width="6" height="14"/>
    <rect x="526" y="154" width="5" height="8"/>
    <rect x="574" y="150" width="5" height="12"/>
    <rect x="579" y="144" width="5" height="18"/>
    <rect x="638" y="148" width="6" height="14"/>
    <rect x="644" y="154" width="5" height="8"/>
  </g>
</svg>
