<?xml version="1.0" encoding="UTF-8" standalone="no"?>
<!DOCTYPE svg PUBLIC "-//W3C//DTD SVG 1.1//EN" "http://www.w3.org/Graphics/SVG/1.1/DTD/svg11.dtd">
<svg width="100%" height="100%" viewBox="0 0 1024 1024" version="1.1" xmlns="http://www.w3.org/2000/svg" xmlns:xlink="http://www.w3.org/1999/xlink" xml:space="preserve" xmlns:serif="http://www.serif.com/" style="fill-rule:evenodd;clip-rule:evenodd;stroke-linejoin:round;stroke-miterlimit:2;">
    <g transform="matrix(1.191066,0,0,1.191066,-2.279602,221.026396)">
        <path d="M798.5,2.034C804.32,1.996 842.934,1.738 858.204,43.605C862.107,54.307 861.629,54.585 861.629,215.5C861.629,473.145 861.767,473.183 860.551,479.509C855.289,506.887 832.822,529.565 800.494,530.28C797.831,530.339 64.581,530.302 64.502,530.3C32.662,529.772 2.643,507.646 2.371,465.5C1.343,306.445 2.371,306.505 2.371,147.5C2.371,50.006 0.416,45.449 15.125,26.219C36.633,-1.899 64.748,2.034 82.5,2.034C321.167,2.034 559.833,2.034 798.5,2.034ZM43.962,360.5C44.205,339.343 43.817,61.363 44.164,59.432C47.164,42.765 64.282,42.988 66.499,43.017C305.833,43.017 545.166,43.017 784.5,43.017C788.318,43.017 820.142,38.582 820.036,63.501C819.805,117.675 820.165,470.647 819.85,472.565C817.926,484.288 807.029,487.688 805.403,488.195C802.686,489.043 802.687,488.954 85.5,488.954C66.605,488.954 51.024,491.722 44.968,475.357C43.829,472.278 43.962,472.181 43.962,360.5Z" style="fill-opacity:1;"/>
    </g>
    <g transform="matrix(9.667487,0,0,10.960796,-1173.231874,-8786.542445)">
        <g transform="matrix(50,0,0,50,216.368362,868.212647)">
        </g>
        <text x="168.668px" y="868.213px" style="font-family:'Montserrat-ExtraBold', 'Montserrat';font-weight:800;font-size:50px;">M</text>
    </g>
    <g transform="matrix(13.064171,0,0,14.811886,-2101.546558,-12062.713766)">
        <g transform="matrix(50,0,0,50,199.118362,868.212647)">
        </g>
        <text x="168.668px" y="868.213px" style="font-family:'Montserrat-ExtraBold', 'Montserrat';font-weight:800;font-size:50px;">&lt;</text>
    </g>
</svg>
